inDegrees=yes
name=ik_S52_A03_T03
DataType=double
version=3
OpenSimVersion=4.3-2021-08-27-4bc7ad9
endheader
time	pelvis_tilt	pelvis_list	pelvis_rotation	pelvis_tx	pelvis_ty	pelvis_tz	hip_flexion_r	hip_adduction_r	hip_rotation_r	knee_angle_r	knee_angle_r_beta	ankle_angle_r	subtalar_angle_r	mtp_angle_r	hip_flexion_l	hip_adduction_l	hip_rotation_l	knee_angle_l	knee_angle_l_beta	ankle_angle_l	subtalar_angle_l	mtp_angle_l	lumbar_extension	lumbar_bending	lumbar_rotation	arm_flex_r	arm_add_r	arm_rot_r	elbow_flex_r	pro_sup_r	wrist_flex_r	wrist_dev_r	arm_flex_l	arm_add_l	arm_rot_l	elbow_flex_l	pro_sup_l	wrist_flex_l	wrist_dev_l
12.67999999999982	-3.581816198086172	0.1995663941993949	109.6968163846414	0	0.9399999999999999	0	19.20523597359344	-11.05069464922574	-6.997545086512246	1.769430923338233	0.03088239549885554	0	0	0	-7.366168433243558	6.725804932046163	9.351639291602797	9.070070857076418	0.1583025998451675	0	0	0	0	0	0	27.59205049685949	-27.59205049685949	4.018516632121671	71.84008287680314	85.98148359462539	0	0	27.59205049685949	-27.59205049685949	4.018516632121671	71.84008287680314	85.98148359444234	0	0
12.69999999999982	-3.579424241006861	-0.01888971623783655	109.9574268226644	0	0.9399999999999999	0	18.79737038679145	-10.71066048901404	-6.980269254362648	2.002064822788657	0.03494262299601886	0	0	0	-7.995543985629929	6.342809300904649	9.128705953156668	8.459156017737124	0.1476401244494047	0	0	0	0	0	0	27.59619624841261	-27.59619624841261	4.018980146497857	71.84641807672584	85.98102008027402	0	0	27.59619624841261	-27.59619624841261	4.018980146497857	71.84641807672584	85.98102008009099	0	0
12.71999999999982	-3.49721430264841	-0.3408628429803991	110.5277473689759	0	0.9399999999999999	0	18.27524495667887	-10.35292695967207	-7.508507390190418	2.13001794599772	0.03717582628422698	0	0	0	-8.281355330837608	5.991855214745229	9.413354830823428	8.759267237913823	0.1528780533636657	0	0	0	0	0	0	27.59751873641783	-27.59751873641783	4.019127213459708	71.84842750996836	85.98087301331994	0	0	27.59751873641783	-27.59751873641783	4.019127213459708	71.84842750996836	85.98087301313693	0	0
12.73999999999982	-3.390009980577899	-0.5377687838554422	110.9885853823972	0	0.9399999999999999	0	17.54024201184383	-9.722581994619961	-8.159340334296557	1.487667150721673	0.02596468995385593	0	0	0	-8.602823796287437	5.598307343266385	9.556842021954877	9.367692423348062	0.1634970761015502	0	0	0	0	0	0	27.60270570360722	-27.60270570360722	4.019706637772755	71.8563463768988	85.98029358903781	0	0	27.60270570360722	-27.60270570360722	4.019706637772755	71.8563463768988	85.98029358885489	0	0
12.75999999999982	-3.211820236369041	-0.5718322058768482	111.3660024439896	0	0.9399999999999999	0	16.6576004959613	-8.857565451697928	-9.098488553650052	1.271658525443139	0.02219462823003886	0	0	0	-9.109940644570097	5.037402853040519	9.608975994851756	9.688623188742101	0.1690983746286217	0	0	0	0	0	0	27.60456488812935	-27.60456488812935	4.019913469811804	71.85917240164972	85.98008675700976	0	0	27.60456488812935	-27.60456488812935	4.019913469811804	71.85917240164972	85.98008675682694	0	0
12.77999999999982	-2.928226072102265	-0.6412223818141882	111.7086465462636	0	0.9399999999999999	0	15.4237837966518	-7.468563299710367	-9.708593563878441	0.4714370868696403	0.008228129381885751	0	0	0	-9.407436246048334	4.284236155409006	9.316333480819969	10.33711237174122	0.1804166460355244	0	0	0	0	0	0	27.61765595259359	-27.61765595259359	4.021267605657671	71.87759158872271	85.97873262123524	0	0	27.61765595259359	-27.61765595259359	4.021267605657671	71.87759158872271	85.97873262105269	0	0
12.79999999999982	-2.757872788668017	-0.4863828094770426	111.8252535337713	0	0.9399999999999999	0	14.79539994072356	-6.870813653089579	-9.26641933232046	0.5406860446650366	0.009436751698990008	0	0	0	-9.880389744165827	3.404345822454425	8.090784597164921	10.80396280360808	0.1885647231859585	0	0	0	0	0	0	27.64506653351597	-27.64506653351597	4.02392063286337	71.91352889936303	85.97607959416796	0	0	27.64506653351597	-27.64506653351597	4.02392063286337	71.91352889936303	85.97607959398589	0	0
12.81999999999982	-2.566162161116729	-0.2087705243272634	112.0143002276845	0	0.9399999999999999	0	14.10165100353625	-6.418337875675372	-8.724183202411645	0.723039005367598	0.01261941126400954	0	0	0	-10.25618133333309	2.450178861957926	6.859125387999965	11.41153212403123	0.199168808261447	0	0	0	0	0	0	27.6782332226211	-27.6782332226211	4.027127462606025	71.95696444114502	85.97287276459259	0	0	27.6782332226211	-27.6782332226211	4.027127462606025	71.95696444114502	85.97287276441109	0	0
12.83999999999982	-2.348518547263822	0.2511758119125517	112.2163895679272	0	0.9399999999999999	0	13.73940853229946	-5.801264435882941	-7.527530732737345	2.616671723385306	0.04566953701690789	0	0	0	-10.55634893558586	1.415675528046237	5.897632851018432	12.8659282468242	0.224552809232424	0	0	0	0	0	0	27.6891435187737	-27.6891435187737	4.028341027345917	71.9735417599133	85.9716591999174	0	0	27.6891435187737	-27.6891435187737	4.028341027345917	71.9735417599133	85.97165919973602	0	0
12.85999999999981	-1.927329759326687	0.7535441382548947	112.3242197647409	0	0.9399999999999999	0	13.19875265728825	-5.165611462755776	-7.144617522635472	3.997405357298451	0.06976788502171831	0	0	0	-10.65721946593016	0.1672170695348645	5.316194149972127	14.3694988819608	0.2507950673518599	0	0	0	0	0	0	27.69894027728582	-27.69894027728582	4.029429933713949	71.98841512000739	85.97057029360734	0	0	27.69894027728582	-27.69894027728582	4.029429933713949	71.98841512000739	85.97057029342622	0	0
12.87999999999981	-1.629063504777779	0.9018234681186762	112.2475952191421	0	0.9399999999999999	0	13.16159037967865	-4.877554987825328	-7.211140080205547	5.493295305222064	0.09587608986047187	0	0	0	-10.20871635653243	-0.9661010912559354	4.532653714979888	17.36222679587114	0.3030280230659369	0	0	0	0	0	0	27.70843167846557	-27.70843167846557	4.030481259436524	72.00277190365134	85.96951896794073	0	0	27.70843167846557	-27.70843167846557	4.030481259436524	72.00277190365134	85.96951896775977	0	0
12.89999999999981	-1.043867950705147	1.025130477930729	112.1001486550782	0	0.9399999999999999	0	12.72556684086015	-4.152523535888234	-7.628541862329513	6.305268820158024	0.1100477011350957	0	0	0	-9.23294226198386	-1.962343926334909	3.96147152055207	18.30838171525295	0.3195415416430909	0	0	0	0	0	0	27.71554347139962	-27.71554347139962	4.031266743508548	72.01349632545187	85.96873348391055	0	0	27.71554347139962	-27.71554347139962	4.031266743508548	72.01349632545187	85.96873348372978	0	0
12.91999999999981	-0.7042753215888925	1.03962906106258	112.1806251064236	0	0.9399999999999999	0	12.80248154859055	-3.885878202947279	-7.886026514567503	6.815446395546166	0.1189519795954604	0	0	0	-8.10061898490086	-3.118703981781419	3.03681070023518	20.97448091945876	0.366073750941283	0	0	0	0	0	0	27.72369737963717	-27.72369737963717	4.03217086552685	72.02584295267752	85.96782936194042	0	0	27.72369737963717	-27.72369737963717	4.03217086552685	72.02584295267752	85.96782936175977	0	0
12.93999999999981	-0.5050293867371738	0.9424459469029186	112.4477247586213	0	0.9399999999999999	0	11.51170459462025	-3.011405031092148	-9.818701230612183	7.364307863424228	0.1285314193472617	0	0	0	-6.787001031014115	-4.143553487740784	2.369870495846705	23.81129689780256	0.4155855300365664	0	0	0	0	0	0	27.72988832907792	-27.72988832907792	4.032856415109494	72.03520388973062	85.96714381239426	0	0	27.72988832907792	-27.72988832907792	4.032856415109494	72.03520388973062	85.96714381221378	0	0
12.95999999999981	-0.3606433453338333	0.8505791708964505	112.8276037445115	0	0.9399999999999999	0	10.9901091680823	-2.409656681981848	-10.03832829486092	7.133970968242967	0.1245112821375276	0	0	0	-5.353952598306524	-5.100642177355478	1.980927637184149	26.79663658383692	0.4676895368483198	0	0	0	0	0	0	27.73897395014581	-27.73897395014581	4.033863988947363	72.04896269030579	85.9661362386101	0	0	27.73897395014581	-27.73897395014581	4.033863988947363	72.04896269030579	85.96613623842978	0	0
12.97999999999981	-0.1570407843430061	0.9641084222705872	113.1802089280106	0	0.9399999999999999	0	10.41120026555879	-1.676395025557599	-9.499000775302214	7.239312522066196	0.1263498390909098	0	0	0	-3.968587529233643	-6.081189117560903	1.729591374516216	29.87238392072397	0.5213714548364461	0	0	0	0	0	0	27.74782086781966	-27.74782086781966	4.034844356993607	72.06234896359221	85.96515587061604	0	0	27.74782086781966	-27.74782086781966	4.034844356993607	72.06234896359221	85.96515587043586	0	0
12.99999999999981	0.3384898955152371	1.493815579862295	113.6380822454823	0	0.9399999999999999	0	8.767253283386554	0.07639134370603551	-8.557176702610592	6.195136555861177	0.1081255305104391	0	0	0	-2.756077103032437	-7.321656128625856	1.593115481152365	32.91434410158509	0.5744636757070348	0	0	0	0	0	0	27.75631959667837	-27.75631959667837	4.03578582619003	72.07520345348166	85.96421440146969	0	0	27.75631959667837	-27.75631959667837	4.03578582619003	72.07520345348166	85.96421440128971	0	0
13.01999999999981	0.6987095536803372	1.836337547986377	113.9619631406797	0	0.9399999999999999	0	8.000321977662262	1.074963773116171	-8.855346495601932	6.210166864137105	0.1083878588774438	0	0	0	-1.448631578805403	-8.311725647935367	1.424270044562668	35.63683626630701	0.6219801278411802	0	0	0	0	0	0	27.7643082938882	-27.7643082938882	4.036669651933466	72.08726971683512	85.96333057577328	0	0	27.7643082938882	-27.7643082938882	4.036669651933466	72.08726971683512	85.96333057559349	0	0
13.03999999999981	0.9593737785283484	2.031439406438044	114.2127565752405	0	0.9399999999999999	0	7.285258368160288	1.898062046257403	-9.441007336964667	6.529230897722447	0.1139565767882018	0	0	0	-0.1479118710958987	-9.128004265723696	1.002452429342284	37.53387652924991	0.6550897264724327	0	0	0	0	0	0	27.77065131506011	-27.77065131506011	4.037370900255989	72.09684279069479	85.9626293274881	0	0	27.77065131506011	-27.77065131506011	4.037370900255989	72.09684279069479	85.96262932730838	0	0
13.05999999999981	1.085832058724824	1.985704173158408	114.2815175241946	0	0.9399999999999999	0	6.796513190348073	2.426088718043207	-9.988397649864487	6.75252240548364	0.1178537487903771	0	0	0	1.195125269313932	-9.560386612468692	0.06274561353773069	37.81649740180501	0.6600223912333784	0	0	0	0	0	0	27.8340224627192	-27.8340224627192	4.04332762779441	72.17736698735737	85.9566726002588	0	0	27.8340224627192	-27.8340224627192	4.04332762779441	72.17736698735737	85.95667260008022	0	0
13.07999999999981	1.100801177370041	1.867741567329931	114.2285766718715	0	0.9399999999999999	0	6.383403817113682	2.751376508884885	-10.32412316173121	6.879090608341514	0.1200627806585791	0	0	0	3.989644850530753	-9.582394604688494	-0.3438017177850109	39.33256024216678	0.6864826794648284	0	0	0	0	0	0	27.94286023818472	-27.94286023818472	4.053565380666688	72.31576890346548	85.94643484791793	0	0	27.94286023818472	-27.94286023818472	4.053565380666688	72.31576890346548	85.94643484774132	0	0
13.09999999999981	1.065954371950565	1.733603536985729	114.0234546438615	0	0.9399999999999999	0	6.031493776921501	3.055040070438491	-10.50950081183984	7.143154004436887	0.1246715563544413	0	0	0	4.048283728381383	-9.363950437177737	-0.6788947641088978	37.39609768885148	0.6526850320679002	0	0	0	0	0	0	27.9480554852177	-27.9480554852177	4.054135421908558	72.32354442166431	85.94586480670635	0	0	27.9480554852177	-27.9480554852177	4.054135421908558	72.32354442166431	85.94586480652984	0	0
